<svg viewBox="0 0 512 512" xml:space="preserve" xmlns="http://www.w3.org/2000/svg" enable-background="new 0 0 512 512"><path d="M317.686 229.75a159.492 159.492 0 0 1 2.709 29.398C320.395 339.125 266.852 396 186 396c-77.349 0-140-62.651-140-140s62.651-140 140-140c37.803 0 69.385 13.911 93.627 36.487l-39.469 39.465v-.09c-14.697-14.001-33.333-21.174-54.158-21.174-46.198 0-83.736 39.024-83.736 85.227 0 46.194 37.538 85.312 83.736 85.312 41.913 0 70.436-23.977 76.307-56.875H186V229.75h131.686zm104.564 8.75v-43.75h-35v43.75H343.5v35h43.75v43.75h35V273.5H466v-35h-43.75z" fill="#666666" class="fill-000000"></path></svg>