<svg viewBox="0 0 124 124" xml:space="preserve" xmlns="http://www.w3.org/2000/svg" enable-background="new 0 0 124 124"><path d="M67.8 83.8c-5.5-.4-7.8-3.1-12.1-5.7-1.9 10-4.2 19.7-9.5 26.3-1.6 1.9-4.7 1-4.8-1.5-.8-16 4.7-28.7 7.4-42-5.1-8.7.6-26.1 11.5-21.8 13.4 5.3-11.6 32.2 5.2 35.6C83 78.1 90.2 44.3 79.3 33.3c-15.7-15.9-45.6-.4-41.9 22.4.7 4.3 4.3 6.3 3.9 10.6-.3 2.7-3 4.2-5.4 3.1-6.9-3.2-9.1-10.3-8.8-19.4.6-17.2 15.5-29.3 30.4-31 18.9-2.1 36.6 6.9 39 24.7 2.8 19.9-8.5 41.6-28.7 40.1z" fill="#666666" class="fill-333033"></path></svg>