<svg viewBox="0 0 512 512" xml:space="preserve" xmlns="http://www.w3.org/2000/svg" enable-background="new 0 0 512 512"><path d="M423.003 170.352c.161 3.688.246 7.413.246 11.138 0 113.868-86.666 245.17-245.16 245.17-48.669 0-93.957-14.26-132.089-38.717 6.74.795 13.601 1.211 20.561 1.211 40.362 0 77.513-13.785 107.006-36.893-37.702-.688-69.524-25.611-80.49-59.832a86.327 86.327 0 0 0 16.21 1.541 86.145 86.145 0 0 0 22.706-3.025c-39.418-7.914-69.12-42.738-69.12-84.484v-1.091a85.866 85.866 0 0 0 39.039 10.783c-23.122-15.451-38.34-41.832-38.34-71.729 0-15.782 4.251-30.583 11.665-43.315 42.506 52.137 105.989 86.434 177.608 90.036-1.47-6.31-2.229-12.89-2.229-19.642 0-47.591 38.585-86.164 86.163-86.164 24.787 0 47.175 10.464 62.895 27.215a172.75 172.75 0 0 0 54.724-20.917c-6.433 20.119-20.097 37.004-37.887 47.676 17.424-2.083 34.039-6.715 49.49-13.577-11.556 17.291-26.161 32.46-42.998 44.616z" fill-rule="evenodd" clip-rule="evenodd" fill="#ffffff" class="fill-000000"></path></svg>